# xmcd
#
# Track frame offsets: 
#        150
#        14376
#        37405
#        58137
#        77568
#        93797
#        107061
#        120518
#        135972
#        149698
#        160790
#
# Disc length: 2325 seconds
#
# Revision: 0
# Processed by: cddbd v1.4PL0 Copyright (c) Steve Scherf et al.
# Submitted via: ExactAudioCopy v0.90a11
#
DISCID=8e09130b
DTITLE=Robert Earl Keen - West Textures
DYEAR=1900
DGENRE=
TTITLE0=Sing One For Sister
TTITLE1=The Road Goes On Forever
TTITLE2=Maria
TTITLE3=Sonora's Death Row
TTITLE4=Mariano
TTITLE5=Don't Turn Out the Light
TTITLE6=Leavin' Tennessee
TTITLE7=Jennifer Johnson and Me
TTITLE8=The Five Pound Bass
TTITLE9=It's The Little Things
TTITLE10=Love's a Word I Never Throw Around
EXTD=
EXTT0=
EXTT1=
EXTT2=
EXTT3=
EXTT4=
EXTT5=
EXTT6=
EXTT7=
EXTT8=
EXTT9=
EXTT10=
PLAYORDER=
